# xmcd
#
# Track frame offsets:
#       150
#       31283
#       55967
#       83387
#       109606
#       131107
#       154697
#       176579
#       204584
#       231899
#       257982
#       289630
#       319817
#       354376
#
# Disc length: 4751 seconds
#
# Revision: 3
# Processed by: cddbd v1.5.2PL0 Copyright (c) Steve Scherf et al.
# Submitted via: FreeDbEdit v0.1
# Normalized: r1:TDELIM( - )
#
DISCID=c1128d0e
DTITLE=Various Artist - DeeJay Time - Buta Buta, Volume 6 [CD2]
DYEAR=2000
DGENRE=New Age
TTITLE0=Nalin Inc. - Scream
TTITLE1=Relab feat. Sophie Olson - The One Alone
TTITLE2=DJ Herbie - King of Rock
TTITLE3=Floorfilla - Le' Delire
TTITLE4=Laava - Whereever You Are
TTITLE5=Lagoon - Fly Away
TTITLE6=Thalaya - Solong
TTITLE7=Shelly - I Will Follow You
TTITLE8=Nightglow - I Promise You
TTITLE9=Cooper - I Belive in Love
TTITLE10=Carlolina Marquez - Mas Musica
TTITLE11=DJ Bozzywoozy - Party Affair
TTITLE12=Mango Maniax - Jump All Around
TTITLE13=DeeJay Time - Outro
EXTD=YEAR: 2000
EXTT0=
EXTT1=
EXTT2=
EXTT3=
EXTT4=
EXTT5=
EXTT6=
EXTT7=
EXTT8=
EXTT9=
EXTT10=
EXTT11=
EXTT12=
EXTT13=
PLAYORDER=
